<svg width="64" height="64" viewBox="0 0 64 64" fill="none" xmlns="http://www.w3.org/2000/svg">
<g opacity="0.8">
<path fill-rule="evenodd" clip-rule="evenodd" d="M13.6666 10.6667C11.4564 10.6667 9.33683 11.5447 7.77403 13.1075C6.21123 14.6703 5.33325 16.7899 5.33325 19V45C5.33325 47.2102 6.21123 49.3298 7.77403 50.8926C9.33683 52.4554 11.4564 53.3334 13.6666 53.3334H50.3333C52.5434 53.3334 54.663 52.4554 56.2258 50.8926C57.7886 49.3298 58.6666 47.2102 58.6666 45V19C58.6666 16.7899 57.7886 14.6703 56.2258 13.1075C54.663 11.5447 52.5434 10.6667 50.3333 10.6667H13.6666ZM24.2618 23.0106C24.0902 23.3121 23.9999 23.6531 23.9999 24V40C23.9999 40.3469 24.0902 40.6879 24.2618 40.9894C24.4334 41.2909 24.6805 41.5426 24.9788 41.7197C25.2771 41.8968 25.6164 41.9933 25.9632 41.9997C26.3101 42.0061 26.6527 41.9221 26.9573 41.756L41.6239 33.756C41.9395 33.584 42.2028 33.3301 42.3863 33.0211C42.5698 32.7121 42.6666 32.3594 42.6666 32C42.6666 31.6406 42.5698 31.2879 42.3863 30.9789C42.2028 30.6699 41.9395 30.416 41.6239 30.244L26.9573 22.244C26.6527 22.078 26.3101 21.994 25.9632 22.0004C25.6164 22.0067 25.2771 22.1032 24.9788 22.2803C24.6805 22.4575 24.4334 22.7091 24.2618 23.0106Z" fill="white"/>
</g>
</svg>
